<svg xmlns="http://www.w3.org/2000/svg" xmlns:xlink="http://www.w3.org/1999/xlink" width="11520" zoomAndPan="magnify" viewBox="0 0 8640 2592.000001" height="3456" preserveAspectRatio="xMidYMid meet" version="1.0"><defs><clipPath id="c8c2016902"><path d="M 1.667969 0 L 8638.332031 0 L 8638.332031 2591 L 1.667969 2591 Z M 1.667969 0 " clip-rule="nonzero"/></clipPath><clipPath id="1e15e4ae73"><path d="M 3931.351562 906.851562 L 4708.648438 906.851562 L 4708.648438 1684.148438 L 3931.351562 1684.148438 Z M 3931.351562 906.851562 " clip-rule="nonzero"/></clipPath><clipPath id="d0574dc63a"><path d="M 4052.804688 906.851562 L 4587.195312 906.851562 C 4654.273438 906.851562 4708.648438 961.226562 4708.648438 1028.304688 L 4708.648438 1562.695312 C 4708.648438 1629.773438 4654.273438 1684.148438 4587.195312 1684.148438 L 4052.804688 1684.148438 C 3985.726562 1684.148438 3931.351562 1629.773438 3931.351562 1562.695312 L 3931.351562 1028.304688 C 3931.351562 961.226562 3985.726562 906.851562 4052.804688 906.851562 Z M 4052.804688 906.851562 " clip-rule="nonzero"/></clipPath></defs><g clip-path="url(#c8c2016902)"><path fill="#ffffff" d="M 1.667969 0 L 8638.332031 0 L 8638.332031 2591 L 1.667969 2591 Z M 1.667969 0 " fill-opacity="1" fill-rule="nonzero"/><path fill="#ffffff" d="M 1.667969 0 L 8638.332031 0 L 8638.332031 2591 L 1.667969 2591 Z M 1.667969 0 " fill-opacity="1" fill-rule="nonzero"/></g><g clip-path="url(#1e15e4ae73)"><g clip-path="url(#d0574dc63a)"><path fill="#ffffff" d="M 3931.351562 906.851562 L 4708.648438 906.851562 L 4708.648438 1684.148438 L 3931.351562 1684.148438 Z M 3931.351562 906.851562 " fill-opacity="1" fill-rule="nonzero"/></g></g></svg>